<svg xmlns="http://www.w3.org/2000/svg" xmlns:xlink="http://www.w3.org/1999/xlink" width="500" zoomAndPan="magnify" viewBox="0 0 375 374.999991" height="500" preserveAspectRatio="xMidYMid meet" version="1.0"><path fill="#ffffff" d="M 144.9375 42.671875 C 145.65625 42.789062 146.78125 43.472656 147.433594 44.191406 C 148.234375 45.0625 148.722656 46.175781 148.898438 47.554688 C 149.050781 48.691406 148.957031 51.277344 148.6875 53.308594 C 148.421875 55.34375 147.957031 57.855469 147.65625 58.90625 C 147.355469 59.953125 146.765625 61.027344 146.351562 61.296875 C 145.796875 61.648438 145.382812 61.648438 144.828125 61.300781 C 144.414062 61.039062 143.636719 60.0625 143.101562 59.128906 C 142.570312 58.199219 141.738281 56.261719 141.25 54.832031 C 140.664062 53.09375 140.371094 51.101562 140.375 48.859375 C 140.378906 47.007812 140.574219 45.101562 140.8125 44.625 C 141.050781 44.148438 141.785156 43.460938 142.441406 43.105469 C 143.117188 42.734375 144.199219 42.550781 144.9375 42.671875 Z M 167.289062 52.976562 C 168.414062 53.0625 168.964844 53.398438 169.460938 54.28125 C 169.941406 55.152344 170.003906 55.679688 169.679688 56.238281 C 169.433594 56.660156 167.1875 58.019531 164.683594 59.257812 C 162.183594 60.5 159.453125 61.644531 158.617188 61.796875 C 157.785156 61.949219 156.945312 61.910156 156.761719 61.707031 C 156.578125 61.507812 157.085938 60.46875 157.890625 59.390625 C 158.695312 58.3125 160.214844 56.722656 161.265625 55.851562 C 162.316406 54.976562 163.761719 53.949219 164.480469 53.5625 C 165.195312 53.175781 166.460938 52.910156 167.289062 52.976562 Z M 125.398438 56.351562 C 125.636719 56.355469 126.808594 56.816406 128.003906 57.371094 C 129.195312 57.925781 131.296875 59.390625 132.671875 60.625 C 134.042969 61.855469 135.167969 63.160156 135.167969 63.515625 C 135.167969 63.871094 135.019531 64.253906 134.839844 64.359375 C 134.664062 64.464844 132.757812 64.011719 130.609375 63.347656 C 128.457031 62.679688 125.871094 61.714844 124.855469 61.195312 C 123.347656 60.433594 123 60.023438 122.953125 58.980469 C 122.90625 58.074219 123.191406 57.503906 123.929688 57.023438 C 124.496094 56.648438 125.15625 56.347656 125.398438 56.351562 Z M 157.097656 67.820312 C 171.101562 67.933594 171.53125 67.957031 175.988281 69.113281 C 178.492188 69.765625 181.769531 70.871094 183.261719 71.574219 C 184.925781 72.355469 186.476562 73.480469 187.261719 74.480469 C 187.96875 75.375 188.652344 76.648438 188.78125 77.304688 C 188.925781 78.042969 188.6875 79.160156 188.148438 80.234375 C 187.667969 81.191406 186.449219 82.632812 185.433594 83.4375 C 184.417969 84.25 182.21875 85.59375 180.546875 86.429688 C 178.875 87.265625 176.140625 88.371094 174.46875 88.886719 C 172.796875 89.402344 170.253906 90.09375 168.824219 90.421875 C 167.390625 90.753906 163.773438 91.476562 160.789062 92.035156 C 155.738281 92.976562 154.265625 93.046875 139.726562 93.039062 C 124.953125 93.035156 123.882812 92.984375 120.183594 92.058594 C 118.035156 91.515625 115.105469 90.511719 113.671875 89.824219 C 112.238281 89.132812 110.433594 87.867188 109.65625 87.007812 C 108.421875 85.644531 108.242188 85.140625 108.242188 83.058594 C 108.242188 80.84375 108.382812 80.515625 110.136719 78.605469 C 111.378906 77.253906 113.214844 75.960938 115.457031 74.855469 C 117.339844 73.929688 120.835938 72.535156 123.226562 71.761719 C 125.613281 70.984375 129.914062 69.933594 132.777344 69.417969 C 135.644531 68.90625 139.066406 68.308594 140.378906 68.09375 C 141.691406 67.878906 149.214844 67.757812 157.097656 67.820312 Z M 134.515625 75.460938 C 131.890625 75.980469 128.175781 76.898438 126.265625 77.503906 C 124.355469 78.105469 121.914062 79.050781 120.835938 79.597656 C 119.757812 80.148438 118.640625 81.003906 118.339844 81.5 C 118.039062 81.996094 117.882812 82.75 117.992188 83.164062 C 118.097656 83.582031 119.121094 84.34375 120.273438 84.851562 C 121.417969 85.359375 123.722656 86.039062 125.398438 86.367188 C 127.46875 86.765625 131.761719 86.949219 138.859375 86.933594 C 144.589844 86.921875 151.234375 86.671875 153.625 86.371094 C 156.011719 86.074219 159.628906 85.535156 161.65625 85.171875 C 163.683594 84.8125 166.519531 84.226562 167.953125 83.875 C 169.386719 83.515625 171.828125 82.757812 173.382812 82.183594 C 174.9375 81.609375 176.742188 80.742188 177.398438 80.25 C 178.144531 79.695312 178.59375 78.960938 178.59375 78.28125 C 178.59375 77.507812 178.214844 77.007812 177.289062 76.542969 C 176.574219 76.1875 174.375 75.496094 172.40625 75.015625 C 169.4375 74.289062 166.949219 74.105469 157.964844 73.960938 C 151.996094 73.859375 145.351562 73.945312 143.203125 74.152344 C 141.050781 74.355469 137.144531 74.945312 134.515625 75.460938 Z M 74.804688 68.378906 C 77.3125 68.496094 80.585938 68.867188 82.078125 69.203125 C 83.574219 69.539062 86.503906 70.621094 88.59375 71.609375 C 91.695312 73.074219 93.039062 74.054688 95.910156 76.929688 C 98.703125 79.726562 99.632812 80.988281 100.410156 83.058594 C 101.109375 84.90625 101.402344 86.671875 101.433594 89.136719 C 101.46875 91.769531 101.265625 93.085938 100.597656 94.566406 C 100.109375 95.640625 99.042969 97.269531 98.226562 98.1875 C 97.402344 99.101562 95.757812 100.324219 94.5625 100.890625 C 93.292969 101.5 91.132812 102.050781 89.351562 102.21875 C 86.59375 102.476562 86.058594 102.390625 83.535156 101.25 C 82.003906 100.558594 80.234375 99.40625 79.59375 98.691406 C 78.957031 97.972656 78.300781 96.753906 78.140625 95.976562 C 77.902344 94.828125 78.0625 94.300781 79 93.152344 C 79.632812 92.375 80.605469 90.765625 81.167969 89.570312 C 81.882812 88.03125 82.179688 86.613281 82.183594 84.6875 C 82.1875 83.136719 81.910156 81.414062 81.535156 80.667969 C 81.179688 79.953125 80.347656 79.101562 79.691406 78.773438 C 79.035156 78.449219 78.003906 78.0625 77.410156 77.910156 C 76.8125 77.761719 75.300781 77.929688 74.046875 78.285156 C 72.789062 78.640625 71.132812 79.492188 70.355469 80.179688 C 69.578125 80.863281 68.355469 82.476562 67.640625 83.761719 C 66.421875 85.941406 66.335938 86.402344 66.335938 90.65625 C 66.335938 94.65625 66.472656 95.480469 67.421875 97.371094 C 68.015625 98.554688 69.679688 100.71875 71.113281 102.183594 C 72.546875 103.640625 75.183594 105.914062 76.976562 107.226562 C 78.765625 108.542969 82.085938 110.992188 84.359375 112.675781 C 86.628906 114.359375 89.769531 117.078125 91.339844 118.71875 C 92.914062 120.359375 94.894531 122.972656 95.742188 124.527344 C 96.59375 126.082031 97.644531 128.429688 98.078125 129.742188 C 98.675781 131.558594 98.863281 133.476562 98.855469 137.773438 C 98.851562 142.242188 98.648438 144.117188 97.898438 146.785156 C 97.378906 148.636719 96.441406 151.175781 95.816406 152.429688 C 95.1875 153.6875 93.851562 155.882812 92.839844 157.316406 C 91.828125 158.75 89.652344 161.160156 88.007812 162.671875 C 86.355469 164.183594 83.933594 166.128906 82.621094 166.992188 C 81.308594 167.855469 78.667969 169.292969 76.757812 170.183594 C 74.847656 171.074219 71.816406 172.234375 70.027344 172.753906 C 67.46875 173.5 65.230469 173.753906 59.605469 173.921875 C 53.292969 174.113281 52 174.03125 48.75 173.21875 C 46.71875 172.710938 43.785156 171.679688 42.234375 170.925781 C 40.292969 169.980469 38.308594 168.460938 35.867188 166.039062 C 33.296875 163.492188 31.957031 161.75 30.992188 159.703125 C 30.261719 158.148438 29.429688 155.414062 29.148438 153.625 C 28.753906 151.152344 28.75 149.632812 29.125 147.328125 C 29.398438 145.648438 30.253906 143.023438 31.03125 141.464844 C 31.804688 139.910156 33.417969 137.660156 34.621094 136.457031 C 35.84375 135.238281 38.144531 133.605469 39.832031 132.765625 C 42.507812 131.4375 43.324219 131.246094 46.78125 131.128906 C 50.125 131.019531 50.910156 131.132812 52.113281 131.890625 C 53.15625 132.546875 53.523438 133.09375 53.511719 133.972656 C 53.507812 134.628906 53.164062 135.535156 52.753906 135.976562 C 52.285156 136.488281 51.949219 137.695312 51.855469 139.234375 C 51.765625 140.578125 51.941406 142.558594 52.234375 143.636719 C 52.605469 144.984375 53.40625 146.199219 54.796875 147.546875 C 55.910156 148.621094 57.59375 149.742188 58.539062 150.035156 C 59.484375 150.328125 61.132812 150.578125 62.210938 150.585938 C 63.289062 150.59375 64.847656 150.367188 65.683594 150.085938 C 66.523438 149.800781 67.957031 149.066406 68.871094 148.449219 C 69.789062 147.832031 70.847656 146.835938 71.226562 146.242188 C 71.609375 145.640625 72.007812 143.800781 72.125 142.117188 C 72.304688 139.53125 72.183594 138.75 71.296875 136.90625 C 70.726562 135.710938 69.269531 133.757812 68.054688 132.5625 C 66.84375 131.367188 62.640625 128.246094 58.714844 125.625 C 54.785156 123 50.140625 119.484375 48.382812 117.808594 C 46.628906 116.128906 44.554688 113.78125 43.777344 112.585938 C 42.996094 111.394531 41.957031 109.339844 41.464844 108.027344 C 40.976562 106.714844 40.332031 103.878906 40.039062 101.730469 C 39.621094 98.710938 39.613281 97.058594 40 94.457031 C 40.273438 92.605469 41.085938 89.574219 41.800781 87.726562 C 42.535156 85.828125 44.09375 83.042969 45.382812 81.34375 C 46.640625 79.683594 48.9375 77.28125 50.484375 76.011719 C 52.035156 74.742188 54.582031 73.039062 56.132812 72.230469 C 57.683594 71.421875 60.421875 70.320312 62.210938 69.78125 C 64.003906 69.238281 66.546875 68.65625 67.855469 68.484375 C 69.167969 68.308594 72.300781 68.261719 74.804688 68.378906 Z M 246.011719 70.71875 C 246.90625 70.699219 248.179688 70.890625 248.835938 71.144531 C 249.492188 71.398438 250.472656 72.035156 251.019531 72.558594 C 251.796875 73.300781 252 73.96875 251.988281 75.675781 C 251.976562 76.867188 251.683594 79.699219 251.332031 81.972656 C 250.980469 84.242188 250.695312 86.441406 250.691406 86.855469 C 250.679688 87.496094 251.085938 87.617188 253.179688 87.617188 C 254.550781 87.617188 257.792969 87.371094 260.382812 87.074219 C 264.910156 86.554688 265.113281 86.5625 265.738281 87.398438 C 266.207031 88.019531 266.339844 89.007812 266.214844 90.875 C 266.089844 92.734375 265.65625 94.164062 264.707031 95.867188 C 263.976562 97.179688 262.917969 98.609375 262.351562 99.042969 C 261.785156 99.472656 260.445312 100.003906 259.367188 100.214844 C 258.289062 100.433594 255.605469 100.613281 249.378906 100.644531 L 249.085938 102.707031 C 248.925781 103.839844 248.777344 110.632812 248.761719 117.796875 C 248.726562 130.566406 248.75 130.871094 249.738281 132.996094 C 250.292969 134.191406 251.125 135.707031 251.585938 136.363281 C 252.179688 137.214844 253.183594 137.773438 255.082031 138.316406 C 257.042969 138.878906 257.847656 139.332031 258.121094 140.054688 C 258.328125 140.59375 258.371094 141.664062 258.21875 142.441406 C 258.0625 143.21875 257.578125 144.585938 257.132812 145.480469 C 256.691406 146.375 255.496094 147.90625 254.480469 148.878906 C 253.464844 149.851562 251.660156 151.125 250.464844 151.707031 C 248.5625 152.632812 247.703125 152.765625 243.515625 152.765625 C 239.390625 152.761719 238.492188 152.625 236.921875 151.777344 C 235.929688 151.242188 234.507812 150.261719 233.773438 149.609375 C 233.042969 148.953125 231.953125 147.632812 231.355469 146.675781 C 230.757812 145.722656 229.78125 143.472656 229.183594 141.683594 C 228.144531 138.554688 228.097656 138 228.113281 127.675781 C 228.117188 121.765625 228.3125 115.074219 228.542969 112.804688 C 228.773438 110.53125 229.113281 106.835938 229.621094 100.5 L 225.929688 100.820312 C 223.101562 101.0625 222.117188 101.003906 221.714844 100.566406 C 221.429688 100.25 221.066406 99.40625 220.90625 98.691406 C 220.742188 97.945312 220.90625 96.371094 221.292969 95 C 221.710938 93.519531 222.519531 92.035156 223.417969 91.089844 C 224.320312 90.148438 225.9375 89.179688 227.679688 88.539062 C 229.476562 87.878906 231.035156 86.929688 232.007812 85.910156 C 232.839844 85.039062 234.695312 82.179688 236.125 79.5625 C 237.550781 76.945312 239.320312 74.074219 240.054688 73.175781 C 240.855469 72.203125 241.992188 71.386719 242.886719 71.152344 C 243.710938 70.9375 245.117188 70.742188 246.011719 70.71875 Z M 292.804688 88.953125 C 295.628906 88.929688 298.359375 89.171875 299.96875 89.585938 C 301.402344 89.953125 303.746094 90.804688 305.179688 91.476562 C 306.613281 92.152344 308.863281 93.511719 310.175781 94.492188 C 311.488281 95.476562 313.59375 97.507812 314.851562 99.007812 C 316.113281 100.503906 317.804688 103.003906 318.621094 104.554688 C 319.433594 106.101562 320.640625 109.132812 321.296875 111.285156 C 322.414062 114.914062 322.496094 115.730469 322.496094 122.792969 C 322.496094 129.851562 322.414062 130.667969 321.296875 134.300781 C 320.640625 136.449219 319.285156 139.773438 318.285156 141.683594 C 317.289062 143.59375 315.59375 146.25 314.519531 147.589844 C 313.445312 148.929688 311.554688 150.882812 310.324219 151.929688 C 309.089844 152.980469 307.035156 154.476562 305.761719 155.253906 C 304.484375 156.035156 301.683594 157.277344 299.535156 158.019531 C 295.660156 159.355469 295.5625 159.371094 288.460938 159.195312 C 281.296875 159.023438 281.296875 159.023438 278.039062 157.472656 C 276.246094 156.621094 273.5625 155.015625 272.070312 153.90625 C 270.574219 152.796875 268.457031 150.667969 267.351562 149.171875 C 266.253906 147.679688 264.808594 145.382812 264.148438 144.070312 C 263.484375 142.757812 262.523438 140.316406 262.011719 138.644531 C 261.5 136.972656 260.878906 133.941406 260.625 131.910156 C 260.304688 129.300781 260.3125 126.757812 260.652344 123.226562 C 260.917969 120.476562 261.527344 116.765625 262.019531 114.976562 C 262.507812 113.183594 263.585938 110.25 264.421875 108.460938 C 265.253906 106.667969 266.785156 104.03125 267.8125 102.597656 C 268.84375 101.164062 270.835938 98.898438 272.234375 97.566406 C 273.636719 96.226562 275.957031 94.386719 277.386719 93.472656 C 278.820312 92.554688 280.871094 91.414062 281.949219 90.933594 C 283.023438 90.457031 284.878906 89.824219 286.074219 89.53125 C 287.269531 89.238281 290.300781 88.976562 292.804688 88.953125 Z M 288.523438 103.132812 C 288.054688 103.792969 286.972656 105.800781 286.125 107.59375 C 285.273438 109.382812 284.269531 112.023438 283.894531 113.457031 C 283.515625 114.886719 283.09375 118.601562 282.960938 121.707031 C 282.765625 126.238281 282.863281 127.90625 283.460938 130.175781 C 283.871094 131.730469 284.554688 133.683594 284.976562 134.515625 C 285.402344 135.351562 286.457031 136.671875 287.320312 137.449219 C 288.1875 138.226562 289.53125 138.976562 290.308594 139.117188 C 291.167969 139.273438 292.351562 139.101562 293.347656 138.683594 C 294.242188 138.304688 295.820312 137.160156 296.847656 136.144531 C 297.875 135.128906 299.332031 133.03125 300.078125 131.476562 C 300.824219 129.921875 301.71875 127.578125 302.0625 126.265625 C 302.40625 124.953125 302.824219 121.726562 302.992188 119.101562 C 303.171875 116.273438 303.105469 112.859375 302.828125 110.742188 C 302.570312 108.769531 301.945312 106.328125 301.441406 105.3125 C 300.9375 104.296875 300.105469 103.007812 299.597656 102.445312 C 299.085938 101.890625 298.128906 101.15625 297.472656 100.820312 C 296.816406 100.484375 295.449219 100.21875 294.433594 100.226562 C 293.417969 100.242188 291.867188 100.628906 290.984375 101.09375 C 290.097656 101.550781 288.996094 102.472656 288.523438 103.132812 Z M 205.082031 94.28125 C 207.546875 94.359375 208.921875 94.660156 210.730469 95.519531 C 212.089844 96.167969 213.960938 97.574219 215.070312 98.789062 C 216.1875 100.015625 217.539062 102.171875 219.414062 106.722656 L 219.414062 141.898438 L 221.117188 145.480469 C 222.054688 147.453125 222.9375 149.503906 223.070312 150.042969 C 223.261719 150.777344 222.917969 151.4375 221.695312 152.703125 C 220.488281 153.949219 219.28125 154.632812 217.027344 155.335938 C 215.355469 155.855469 212.324219 156.398438 210.292969 156.539062 C 208.140625 156.6875 205.425781 156.578125 203.78125 156.273438 C 202.226562 155.992188 200.324219 155.378906 199.546875 154.910156 C 198.535156 154.296875 197.992188 153.539062 197.621094 152.214844 C 197.179688 150.601562 197.289062 149.492188 198.488281 143.417969 C 199.246094 139.597656 200.085938 134.617188 200.355469 132.347656 C 200.652344 129.863281 200.742188 125.753906 200.574219 122.03125 C 200.417969 118.453125 200.058594 115.25 199.71875 114.433594 C 199.398438 113.65625 198.617188 112.386719 197.984375 111.609375 C 197.191406 110.640625 196.320312 110.117188 195.203125 109.933594 C 194.308594 109.785156 192.941406 109.785156 192.164062 109.933594 C 191.386719 110.078125 189.96875 110.933594 189.007812 111.828125 C 187.722656 113.027344 187.121094 114.023438 186.742188 115.625 C 186.410156 117.007812 186.214844 121.832031 186.207031 128.871094 C 186.199219 136.492188 186.375 140.890625 186.785156 142.984375 C 187.109375 144.65625 188.039062 147.734375 188.847656 149.824219 C 190.308594 153.601562 190.3125 153.632812 189.542969 155.035156 C 189.089844 155.851562 187.851562 156.941406 186.609375 157.625 C 185.425781 158.277344 183.136719 159.105469 181.523438 159.46875 C 179.914062 159.839844 177.078125 160.140625 175.226562 160.144531 C 173.378906 160.148438 170.785156 159.949219 169.472656 159.703125 C 168.164062 159.460938 166.59375 158.902344 166 158.460938 C 165.402344 158.023438 164.625 157.160156 164.261719 156.539062 C 163.664062 155.503906 163.75 154.730469 167.007812 138.644531 L 166.96875 126.917969 C 166.945312 119.925781 166.734375 114.316406 166.4375 113.019531 C 166.167969 111.828125 165.183594 109.285156 164.25 107.375 C 163.3125 105.464844 162.542969 103.558594 162.535156 103.140625 C 162.53125 102.726562 163.261719 101.644531 164.15625 100.734375 C 165.050781 99.832031 166.859375 98.578125 168.171875 97.949219 C 169.484375 97.316406 172.023438 96.472656 173.816406 96.066406 C 175.828125 95.617188 178.261719 95.394531 180.1875 95.488281 C 182.488281 95.605469 183.625 95.890625 184.53125 96.558594 C 185.269531 97.101562 185.988281 98.234375 186.335938 99.382812 C 186.65625 100.4375 186.996094 101.539062 187.097656 101.839844 C 187.203125 102.164062 188.355469 101.386719 189.992188 99.871094 C 191.488281 98.492188 193.878906 96.804688 195.3125 96.125 C 196.746094 95.441406 198.796875 94.726562 199.871094 94.535156 C 200.949219 94.339844 203.289062 94.230469 205.082031 94.28125 Z M 131.042969 100.28125 C 132.953125 100.253906 135.980469 100.433594 137.773438 100.667969 C 139.5625 100.90625 142.105469 101.597656 143.417969 102.199219 C 144.730469 102.808594 146.785156 104.039062 147.976562 104.933594 C 149.171875 105.835938 150.792969 107.53125 151.578125 108.710938 C 152.363281 109.886719 153.398438 112.121094 153.867188 113.671875 C 154.644531 116.226562 154.726562 117.757812 154.714844 129.742188 C 154.699219 140.304688 154.832031 143.378906 155.34375 144.941406 C 155.695312 146.015625 156.332031 147.210938 156.757812 147.597656 C 157.183594 147.984375 158.117188 148.488281 158.835938 148.71875 C 159.949219 149.074219 160.15625 149.375 160.273438 150.835938 C 160.347656 151.769531 160.066406 153.417969 159.652344 154.492188 C 159.234375 155.570312 157.980469 157.425781 156.859375 158.617188 C 155.546875 160.015625 153.835938 161.238281 152.050781 162.046875 C 149.851562 163.039062 148.65625 163.300781 146.242188 163.308594 C 144.039062 163.3125 142.722656 163.070312 141.464844 162.429688 C 140.507812 161.949219 139.140625 160.859375 138.425781 160.007812 C 137.707031 159.15625 136.8125 158.011719 135.742188 156.449219 L 131.4375 160.25 C 129.019531 162.386719 125.992188 164.605469 124.527344 165.3125 C 123.09375 166.003906 120.75 166.804688 119.316406 167.09375 C 117.792969 167.398438 115.628906 167.5 114.105469 167.335938 C 112.671875 167.179688 110.523438 166.582031 109.328125 166.019531 C 108.132812 165.453125 106.390625 164.144531 105.445312 163.105469 C 104.503906 162.070312 103.398438 160.441406 102.984375 159.488281 C 102.566406 158.53125 102.097656 156.382812 101.933594 154.710938 C 101.765625 152.9375 101.847656 150.582031 102.128906 149.066406 C 102.398438 147.632812 103.074219 145.480469 103.625 144.289062 C 104.183594 143.09375 105.507812 141.039062 106.574219 139.726562 C 107.644531 138.417969 109.871094 136.421875 111.527344 135.308594 C 113.183594 134.1875 116.003906 132.667969 117.796875 131.925781 C 119.585938 131.1875 122.515625 130.160156 124.3125 129.644531 C 126.101562 129.128906 129.421875 128.394531 135.820312 127.316406 L 135.761719 120.601562 C 135.71875 115.375 135.550781 113.578125 135.003906 112.476562 C 134.617188 111.699219 133.859375 110.773438 133.320312 110.410156 C 132.777344 110.050781 131.375 109.753906 130.171875 109.75 C 128.308594 109.746094 127.816406 109.9375 126.699219 111.089844 C 125.429688 112.398438 125.398438 112.542969 125.398438 121.054688 L 123.660156 122.855469 C 122.703125 123.851562 120.945312 125.101562 119.75 125.640625 C 118.558594 126.183594 116.601562 126.753906 115.410156 126.914062 C 114.207031 127.074219 112.410156 126.996094 111.390625 126.734375 C 110.328125 126.464844 108.800781 125.574219 107.789062 124.636719 C 106.820312 123.742188 105.816406 122.324219 105.554688 121.488281 C 105.277344 120.59375 105.199219 118.804688 105.363281 117.148438 C 105.515625 115.597656 106.082031 113.453125 106.617188 112.382812 C 107.152344 111.316406 108.621094 109.460938 109.875 108.257812 C 111.136719 107.054688 113.285156 105.335938 114.652344 104.4375 C 116.023438 103.53125 118.511719 102.382812 120.183594 101.882812 C 121.855469 101.378906 124.203125 100.824219 125.398438 100.644531 C 126.589844 100.464844 129.132812 100.300781 131.042969 100.28125 Z M 126.773438 138.894531 C 125.855469 139.710938 124.632812 141.355469 124.054688 142.550781 C 123.4375 143.820312 123 145.492188 123.003906 146.566406 C 123.007812 148.097656 123.277344 148.695312 124.582031 150.042969 C 126.082031 151.597656 126.242188 151.65625 128.164062 151.367188 C 129.386719 151.179688 130.746094 150.585938 131.640625 149.847656 C 132.449219 149.179688 133.488281 148.140625 133.945312 147.546875 C 134.613281 146.683594 134.855469 145.371094 135.128906 141.25 C 135.316406 138.382812 135.402344 135.792969 135.320312 135.496094 C 135.238281 135.195312 134.824219 134.953125 134.40625 134.953125 C 133.992188 134.953125 132.476562 135.503906 131.042969 136.179688 C 129.609375 136.855469 127.6875 138.078125 126.773438 138.894531 Z M 338.835938 144.234375 C 343.289062 144.347656 346.523438 144.660156 348.390625 145.152344 C 349.945312 145.558594 352.777344 146.640625 354.6875 147.554688 C 356.707031 148.523438 358.886719 149.964844 359.898438 151.007812 C 361.414062 152.570312 361.625 153.03125 361.550781 154.625 C 361.507812 155.625 357.925781 170.613281 353.597656 187.929688 C 349.265625 205.246094 345.246094 221.761719 344.664062 224.625 C 344.078125 227.492188 343.605469 230.277344 343.609375 230.816406 C 343.609375 231.351562 343.269531 232.503906 342.851562 233.367188 C 342.4375 234.238281 341.703125 235.148438 341.226562 235.394531 C 340.746094 235.644531 339.769531 235.972656 339.054688 236.140625 C 338.335938 236.300781 336.578125 236.285156 335.144531 236.109375 C 333.710938 235.929688 330.046875 235.472656 327.003906 235.09375 C 323.957031 234.710938 320.878906 234.105469 320.164062 233.746094 C 319.40625 233.367188 318.5625 232.414062 318.144531 231.464844 C 317.460938 229.925781 317.476562 229.59375 318.367188 225.277344 C 318.972656 222.351562 319.773438 214.730469 320.601562 204 C 321.3125 194.804688 322.277344 182.589844 322.746094 176.859375 C 323.214844 171.125 323.816406 163.113281 324.074219 159.054688 C 324.335938 154.992188 324.636719 151.035156 324.746094 150.257812 C 324.851562 149.480469 325.574219 148.148438 326.351562 147.296875 C 327.128906 146.445312 328.738281 145.371094 329.933594 144.90625 C 331.832031 144.171875 332.953125 144.085938 338.835938 144.234375 Z M 230.054688 161.132812 C 235.578125 161.214844 236.328125 161.324219 238.277344 162.308594 C 239.859375 163.113281 240.582031 163.796875 241.023438 164.914062 C 241.570312 166.292969 241.460938 167.492188 239.875 177.726562 C 238.917969 183.9375 237.796875 192.046875 237.386719 195.75 C 236.910156 200.085938 236.632812 206.257812 236.605469 213.117188 C 236.585938 219.539062 236.792969 225.570312 237.136719 228.316406 C 237.449219 230.824219 237.988281 234.097656 238.332031 235.589844 C 238.671875 237.085938 239.738281 240.160156 240.691406 242.429688 C 242.003906 245.546875 242.351562 246.839844 242.105469 247.710938 C 241.925781 248.347656 241.09375 249.453125 240.257812 250.175781 C 239.425781 250.894531 237.660156 251.960938 236.351562 252.542969 C 235.039062 253.117188 232.59375 253.886719 230.921875 254.246094 C 229.25 254.609375 225.636719 254.925781 222.886719 254.953125 C 219.367188 254.984375 217.191406 254.785156 215.507812 254.277344 C 214.195312 253.882812 212.578125 253.15625 211.921875 252.664062 C 211.265625 252.171875 210.511719 251.035156 210.242188 250.140625 C 209.835938 248.757812 209.960938 247.589844 211.089844 242.429688 C 211.820312 239.085938 212.714844 234.59375 213.074219 232.445312 C 213.433594 230.292969 214.035156 225.894531 214.40625 222.671875 C 214.777344 219.449219 215.199219 213.292969 215.34375 208.992188 C 215.492188 204.664062 215.394531 197.980469 215.128906 194.011719 C 214.863281 190.066406 214.351562 185.085938 213.984375 182.9375 C 213.617188 180.789062 212.722656 177.074219 211.992188 174.6875 C 211.136719 171.894531 210.75 169.878906 210.910156 169.042969 C 211.050781 168.324219 211.898438 167.027344 212.792969 166.15625 C 213.6875 165.285156 215.296875 164.128906 216.375 163.585938 C 217.453125 163.046875 219.597656 162.253906 221.152344 161.824219 C 223.34375 161.21875 225.332031 161.066406 230.054688 161.132812 Z M 135.925781 170.800781 C 137.421875 170.910156 139.648438 171.433594 140.878906 171.972656 C 142.105469 172.511719 143.804688 173.730469 144.648438 174.6875 C 145.488281 175.640625 146.441406 177.058594 146.753906 177.835938 C 147.070312 178.613281 147.324219 180.851562 147.324219 182.828125 C 147.316406 185.464844 147.09375 186.871094 146.476562 188.148438 C 146.015625 189.105469 144.878906 190.761719 143.941406 191.839844 C 143.003906 192.917969 141.1875 194.371094 139.898438 195.078125 C 137.878906 196.191406 136.988281 196.390625 133.429688 196.550781 C 130.378906 196.6875 128.742188 196.546875 127.132812 196.023438 C 125.9375 195.632812 124.226562 194.628906 123.332031 193.792969 C 122.4375 192.957031 121.273438 191.34375 120.753906 190.210938 C 120.0625 188.71875 119.800781 187.308594 119.792969 185.109375 C 119.789062 182.699219 120.039062 181.527344 120.988281 179.464844 C 121.644531 178.03125 122.90625 176.105469 123.789062 175.191406 C 124.675781 174.273438 126.375 173.03125 127.566406 172.429688 C 128.761719 171.824219 130.519531 171.164062 131.476562 170.964844 C 132.429688 170.765625 134.433594 170.691406 135.925781 170.800781 Z M 280.429688 174.238281 C 283.625 174.351562 285.65625 174.691406 288.136719 175.515625 C 289.984375 176.136719 292.429688 177.109375 293.566406 177.679688 C 294.699219 178.25 296.71875 179.570312 298.050781 180.609375 C 299.382812 181.652344 301.695312 183.871094 303.183594 185.542969 C 304.949219 187.53125 306.632812 190.085938 308.039062 192.925781 C 309.21875 195.3125 310.582031 198.832031 311.070312 200.742188 C 311.550781 202.652344 312.070312 206.460938 312.214844 209.210938 C 312.386719 212.347656 312.277344 215.738281 311.929688 218.328125 C 311.625 220.601562 310.914062 224.066406 310.34375 226.039062 C 309.769531 228.007812 308.699219 230.839844 307.953125 232.335938 C 307.210938 233.828125 305.761719 236.316406 304.738281 237.871094 C 303.714844 239.425781 301.632812 241.914062 300.117188 243.402344 C 298.601562 244.894531 296.289062 246.835938 294.976562 247.714844 C 293.664062 248.597656 291.414062 249.867188 289.980469 250.535156 C 288.546875 251.203125 285.8125 252.15625 283.902344 252.652344 C 281.546875 253.269531 278.960938 253.574219 275.867188 253.609375 C 272.421875 253.644531 270.359375 253.414062 267.398438 252.660156 C 265.25 252.109375 262.613281 251.261719 261.539062 250.769531 C 260.460938 250.273438 258.457031 249.125 257.085938 248.214844 C 255.714844 247.304688 253.558594 245.53125 252.304688 244.277344 C 251.050781 243.023438 249.417969 241.121094 248.675781 240.042969 C 247.933594 238.964844 246.832031 237.113281 246.230469 235.917969 C 245.628906 234.722656 244.628906 232.136719 244.003906 230.164062 C 243.3125 227.988281 242.675781 224.578125 242.390625 221.476562 C 242.128906 218.671875 242.046875 214.710938 242.203125 212.683594 C 242.359375 210.65625 242.984375 207.039062 243.59375 204.652344 C 244.203125 202.261719 245.570312 198.453125 246.632812 196.183594 C 247.699219 193.910156 249.410156 190.882812 250.433594 189.453125 C 251.453125 188.019531 253.949219 185.28125 255.980469 183.371094 C 258.167969 181.304688 260.878906 179.257812 262.664062 178.316406 C 264.3125 177.449219 266.835938 176.320312 268.269531 175.8125 C 269.703125 175.304688 272.046875 174.703125 273.480469 174.480469 C 274.914062 174.261719 278.039062 174.152344 280.429688 174.238281 Z M 274.03125 190.101562 C 273.339844 190.9375 272.023438 193.1875 271.109375 195.097656 C 270.191406 197.007812 269.109375 199.839844 268.710938 201.394531 C 268.285156 203.035156 267.875 206.855469 267.730469 210.511719 C 267.523438 215.679688 267.617188 217.394531 268.25 220.066406 C 268.675781 221.855469 269.472656 224.199219 270.019531 225.277344 C 270.5625 226.355469 271.566406 227.757812 272.246094 228.402344 C 272.925781 229.039062 274.019531 229.773438 274.675781 230.027344 C 275.328125 230.28125 276.503906 230.484375 277.28125 230.484375 C 278.058594 230.480469 279.472656 230.101562 280.429688 229.648438 C 281.382812 229.191406 282.933594 227.96875 283.875 226.9375 C 284.820312 225.90625 286.132812 223.886719 286.796875 222.457031 C 287.464844 221.023438 288.414062 218.285156 288.914062 216.375 C 289.542969 213.957031 289.890625 210.921875 290.054688 206.386719 C 290.246094 201.253906 290.148438 199.253906 289.59375 196.941406 C 289.214844 195.332031 288.484375 193.183594 287.980469 192.164062 C 287.476562 191.148438 286.546875 189.765625 285.917969 189.085938 C 285.289062 188.410156 284.230469 187.578125 283.578125 187.242188 C 282.921875 186.902344 281.648438 186.628906 280.753906 186.628906 C 279.859375 186.628906 278.261719 187.066406 277.207031 187.605469 C 276.144531 188.144531 274.71875 189.269531 274.03125 190.101562 Z M 87.179688 175.054688 C 94.683594 175.175781 95.6875 175.285156 98.253906 176.25 C 99.804688 176.835938 102.054688 177.878906 103.25 178.574219 C 104.441406 179.269531 106.65625 181.019531 108.164062 182.472656 C 109.878906 184.117188 111.390625 186.085938 112.191406 187.714844 C 113.089844 189.550781 113.601562 191.476562 113.925781 194.226562 C 114.179688 196.378906 114.253906 199.503906 114.097656 201.175781 C 113.9375 202.847656 113.238281 205.78125 112.542969 207.691406 C 111.84375 209.601562 110.414062 212.433594 109.367188 213.988281 C 108.316406 215.542969 106.316406 217.765625 104.921875 218.933594 C 103.523438 220.105469 101.207031 221.617188 99.773438 222.300781 C 98.316406 222.988281 95.640625 223.761719 93.695312 224.054688 C 90.871094 224.480469 89.734375 224.464844 87.617188 223.980469 C 86.066406 223.628906 84.304688 222.847656 83.273438 222.046875 C 82.316406 221.308594 81.085938 219.828125 80.527344 218.761719 C 79.691406 217.140625 79.570312 216.40625 79.789062 214.421875 C 79.9375 213.109375 80.402344 211.25 80.824219 210.296875 C 81.246094 209.339844 83.222656 206.410156 85.21875 203.78125 C 87.214844 201.15625 89.238281 198.128906 89.722656 197.050781 C 90.296875 195.761719 90.601562 194.105469 90.625 192.195312 C 90.652344 189.539062 90.546875 189.179688 89.351562 187.941406 C 88.636719 187.203125 87.269531 186.390625 86.3125 186.140625 C 85.359375 185.894531 83.792969 185.828125 82.839844 185.996094 C 81.882812 186.164062 80.125 186.660156 78.929688 187.09375 C 77.734375 187.53125 75.488281 188.847656 73.9375 190.015625 C 72.382812 191.1875 69.855469 193.488281 68.316406 195.140625 C 66.78125 196.785156 64.503906 199.699219 63.265625 201.609375 C 62.027344 203.523438 60.277344 206.546875 59.382812 208.34375 C 58.488281 210.132812 57.011719 213.84375 56.105469 216.59375 C 55.195312 219.339844 54.148438 223.101562 53.773438 224.953125 C 53.394531 226.800781 52.96875 230.613281 52.816406 233.421875 C 52.667969 236.296875 52.753906 240.421875 53.023438 242.867188 C 53.289062 245.253906 54.003906 248.671875 54.621094 250.464844 C 55.238281 252.253906 56.265625 254.695312 56.914062 255.878906 C 57.554688 257.070312 59.210938 259.171875 60.582031 260.550781 C 61.957031 261.929688 64.253906 263.644531 65.683594 264.363281 C 67.613281 265.324219 69.167969 265.734375 71.65625 265.933594 C 73.550781 266.085938 76.445312 265.984375 78.277344 265.703125 C 80.066406 265.425781 82.707031 264.652344 84.140625 263.980469 C 85.574219 263.3125 88.261719 261.5625 90.113281 260.089844 C 91.960938 258.617188 94.671875 255.898438 96.128906 254.046875 C 97.585938 252.199219 99.445312 249.265625 100.253906 247.535156 C 101.445312 244.984375 101.960938 244.332031 102.921875 244.117188 C 103.578125 243.96875 104.703125 243.976562 105.421875 244.140625 C 106.136719 244.304688 107.210938 244.792969 107.808594 245.226562 C 108.402344 245.65625 109.480469 247.066406 110.199219 248.351562 C 111.472656 250.632812 111.503906 250.824219 111.652344 257.847656 C 111.773438 263.484375 111.652344 265.617188 111.082031 267.835938 C 110.6875 269.390625 109.792969 272.027344 109.09375 273.699219 C 108.394531 275.371094 106.808594 278.402344 105.574219 280.429688 C 104.011719 282.988281 101.835938 285.589844 98.507812 288.898438 C 94.703125 292.671875 92.730469 294.234375 89.132812 296.335938 C 86.625 297.800781 83.304688 299.496094 81.753906 300.105469 C 80.199219 300.71875 76.976562 301.746094 74.585938 302.394531 C 70.707031 303.445312 69.464844 303.574219 62.863281 303.605469 C 58.167969 303.632812 54.535156 303.433594 52.875 303.066406 C 51.441406 302.746094 48.410156 301.898438 46.144531 301.179688 C 43.871094 300.457031 41.042969 299.375 39.847656 298.773438 C 38.652344 298.171875 36.503906 296.882812 35.070312 295.910156 C 33.636719 294.933594 30.996094 292.742188 29.207031 291.035156 C 27.414062 289.328125 24.941406 286.488281 23.710938 284.71875 C 22.476562 282.957031 20.6875 279.953125 19.734375 278.039062 C 18.78125 276.128906 17.394531 272.660156 16.65625 270.332031 C 15.914062 268.003906 15.03125 264.488281 14.695312 262.515625 C 14.351562 260.542969 13.941406 256.878906 13.78125 254.375 C 13.609375 251.695312 13.695312 247.933594 13.992188 245.253906 C 14.265625 242.75 14.882812 238.742188 15.359375 236.351562 C 15.835938 233.964844 16.917969 229.957031 17.757812 227.449219 C 18.59375 224.945312 20.558594 220.347656 22.117188 217.246094 C 23.675781 214.140625 26.09375 209.9375 27.492188 207.90625 C 28.890625 205.878906 31.605469 202.410156 33.527344 200.199219 C 35.453125 197.988281 38.832031 194.679688 41.042969 192.847656 C 43.25 191.015625 47.109375 188.152344 49.617188 186.488281 C 52.125 184.828125 56.132812 182.523438 58.519531 181.378906 C 60.910156 180.230469 64.621094 178.707031 66.769531 177.992188 C 68.921875 177.273438 72.535156 176.292969 74.804688 175.808594 C 78.308594 175.054688 80.171875 174.9375 87.179688 175.054688 Z M 188.363281 186.257812 C 189.320312 186.234375 191.273438 186.375 192.707031 186.574219 C 194.140625 186.773438 196.386719 187.421875 197.703125 188.019531 C 199.011719 188.613281 201.132812 190.058594 202.410156 191.230469 C 203.683594 192.398438 205.207031 194.335938 205.789062 195.53125 C 206.363281 196.726562 207.046875 199.164062 207.292969 200.960938 C 207.664062 203.617188 207.609375 204.855469 207.023438 207.691406 C 206.628906 209.601562 205.640625 212.484375 204.824219 214.097656 C 203.925781 215.886719 202.117188 218.316406 200.199219 220.332031 C 198.464844 222.148438 195.78125 224.480469 194.226562 225.511719 C 192.671875 226.546875 189.9375 228.074219 188.148438 228.914062 C 186.355469 229.746094 182.445312 231.140625 179.460938 232.003906 C 176.472656 232.875 173.933594 233.667969 173.816406 233.773438 C 173.699219 233.871094 173.890625 234.59375 174.25 235.371094 C 174.605469 236.148438 175.390625 237.351562 175.988281 238.042969 C 176.582031 238.726562 177.808594 239.65625 178.703125 240.105469 C 179.886719 240.691406 181.308594 240.914062 183.914062 240.921875 C 187.113281 240.933594 187.796875 240.78125 190.292969 239.507812 C 191.855469 238.71875 194.257812 236.9375 195.734375 235.484375 C 197.183594 234.050781 199.152344 231.957031 200.097656 230.832031 C 201.371094 229.324219 202.144531 228.78125 203.019531 228.769531 C 203.683594 228.761719 204.746094 229.21875 205.410156 229.804688 C 206.46875 230.730469 206.621094 231.207031 206.765625 234.039062 C 206.871094 236.167969 206.675781 238.082031 206.183594 239.824219 C 205.773438 241.257812 204.628906 243.976562 203.632812 245.867188 C 202.214844 248.570312 200.945312 250.144531 197.695312 253.25 C 194.65625 256.152344 192.707031 257.617188 190.3125 258.789062 C 188.523438 259.667969 185.59375 260.789062 183.804688 261.285156 C 181.316406 261.976562 179.292969 262.191406 175.226562 262.191406 C 170.675781 262.191406 169.488281 262.039062 166.976562 261.128906 C 165.367188 260.542969 163.070312 259.53125 161.875 258.875 C 160.679688 258.222656 158.527344 256.496094 157.09375 255.050781 C 155.308594 253.253906 153.902344 251.25 152.644531 248.726562 C 151.632812 246.699219 150.484375 243.570312 150.089844 241.78125 C 149.597656 239.570312 149.359375 236.425781 149.351562 232.007812 C 149.335938 226.347656 149.484375 224.898438 150.492188 220.933594 C 151.132812 218.429688 152.304688 214.710938 153.097656 212.683594 C 153.894531 210.65625 155.34375 207.625 156.320312 205.953125 C 157.296875 204.28125 159.242188 201.625 160.636719 200.042969 C 162.035156 198.464844 164.445312 196.09375 166 194.785156 C 167.554688 193.46875 169.652344 191.878906 170.667969 191.25 C 171.683594 190.621094 174.226562 189.40625 176.3125 188.558594 C 178.722656 187.574219 181.308594 186.878906 183.371094 186.660156 C 185.160156 186.46875 187.410156 186.289062 188.363281 186.257812 Z M 179.789062 201.324219 C 178.894531 202.320312 177.574219 204.304688 176.855469 205.734375 C 176.140625 207.167969 175.058594 210.054688 174.460938 212.140625 C 173.855469 214.230469 173.21875 217.503906 173.039062 219.414062 C 172.863281 221.328125 172.765625 223.234375 172.832031 223.648438 C 172.894531 224.066406 173.292969 224.414062 173.707031 224.417969 C 174.125 224.421875 175.640625 223.84375 177.074219 223.128906 C 178.507812 222.417969 180.445312 221.191406 181.378906 220.40625 C 182.3125 219.625 183.914062 217.808594 184.933594 216.375 C 185.957031 214.941406 187.328125 212.503906 187.980469 210.949219 C 188.957031 208.628906 189.171875 207.441406 189.199219 204.289062 C 189.234375 200.5 189.214844 200.441406 187.820312 199.1875 C 186.984375 198.433594 185.929688 197.917969 185.214844 197.917969 C 184.558594 197.925781 183.4375 198.28125 182.71875 198.71875 C 182.003906 199.15625 180.683594 200.328125 179.789062 201.324219 Z M 136.46875 202.035156 C 139.136719 202.140625 141.273438 202.480469 142.515625 202.992188 C 143.566406 203.425781 144.796875 204.269531 145.242188 204.867188 C 145.707031 205.488281 146.046875 206.648438 146.035156 207.582031 C 146.03125 208.476562 145.546875 211.992188 144.960938 215.398438 C 144.375 218.804688 143.59375 224.46875 143.222656 227.992188 C 142.855469 231.515625 142.550781 236.789062 142.554688 239.71875 C 142.554688 242.644531 142.859375 247.089844 143.222656 249.597656 C 143.585938 252.101562 144.195312 255.234375 144.574219 256.546875 C 144.945312 257.855469 145.9375 260.496094 146.765625 262.40625 C 147.617188 264.367188 148.179688 266.257812 148.046875 266.75 C 147.917969 267.226562 147.363281 268.183594 146.808594 268.878906 C 146.257812 269.570312 144.929688 270.574219 143.851562 271.109375 C 142.777344 271.648438 140.429688 272.535156 138.640625 273.085938 C 136.109375 273.859375 134.316406 274.089844 130.609375 274.101562 C 127.980469 274.109375 124.660156 273.949219 123.226562 273.742188 C 121.074219 273.429688 120.316406 273.078125 118.882812 271.714844 C 117.289062 270.203125 117.148438 269.898438 117.222656 267.976562 C 117.265625 266.824219 117.917969 263.242188 118.675781 260.019531 C 119.425781 256.796875 120.347656 252.007812 120.71875 249.378906 C 121.148438 246.332031 121.40625 241.222656 121.421875 235.265625 C 121.441406 229.550781 121.246094 224.835938 120.914062 223.105469 C 120.621094 221.550781 119.652344 218.082031 117.144531 210.492188 L 118.015625 208.921875 C 118.492188 208.058594 119.664062 206.816406 120.621094 206.160156 C 121.574219 205.511719 123.578125 204.460938 125.070312 203.835938 C 126.566406 203.207031 128.808594 202.511719 130.066406 202.285156 C 131.320312 202.058594 134.199219 201.945312 136.46875 202.035156 Z M 326.460938 241.964844 C 329.039062 242.0625 331.179688 242.417969 332.757812 243.007812 C 334.074219 243.5 336.316406 244.753906 337.75 245.792969 C 339.207031 246.851562 340.964844 248.636719 341.734375 249.835938 C 342.488281 251.015625 343.445312 253.15625 343.851562 254.589844 C 344.359375 256.378906 344.535156 258.152344 344.398438 260.234375 C 344.265625 262.292969 343.824219 264.082031 343.039062 265.773438 C 342.398438 267.144531 341.019531 269.199219 339.972656 270.332031 C 338.925781 271.464844 337.019531 272.96875 335.738281 273.667969 C 334.460938 274.363281 332.429688 275.191406 331.238281 275.503906 C 330.042969 275.820312 327.699219 276.078125 326.027344 276.082031 C 324.355469 276.085938 321.8125 275.792969 320.378906 275.425781 C 318.859375 275.035156 316.597656 273.96875 314.953125 272.851562 C 313.398438 271.804688 311.511719 270.097656 310.757812 269.066406 C 310 268.03125 308.976562 266.308594 308.484375 265.230469 C 307.761719 263.652344 307.585938 262.394531 307.582031 258.714844 C 307.578125 254.75 307.71875 253.859375 308.660156 251.875 C 309.253906 250.621094 310.765625 248.507812 312.019531 247.179688 C 313.398438 245.71875 315.246094 244.320312 316.6875 243.652344 C 318 243.042969 319.859375 242.382812 320.816406 242.183594 C 321.769531 241.984375 324.308594 241.886719 326.460938 241.964844 Z M 255.675781 258.445312 C 269.613281 258.554688 270.117188 258.585938 274.132812 259.695312 C 276.398438 260.3125 279.921875 261.53125 281.949219 262.386719 C 283.976562 263.246094 286.960938 264.726562 288.570312 265.671875 C 290.183594 266.625 292.558594 268.425781 293.847656 269.679688 C 295.34375 271.140625 296.714844 273.054688 297.648438 275 C 298.902344 277.621094 299.125 278.578125 299.246094 281.949219 C 299.363281 285.0625 299.214844 286.34375 298.507812 288.246094 C 298.023438 289.558594 296.785156 291.589844 295.757812 292.761719 C 294.734375 293.929688 292.914062 295.441406 291.71875 296.121094 C 290.523438 296.796875 288.078125 297.667969 286.289062 298.054688 C 283.628906 298.632812 282.539062 298.671875 280.320312 298.28125 C 278.824219 298.015625 276.480469 297.296875 275.109375 296.683594 C 273.734375 296.070312 270.558594 294.035156 268.050781 292.15625 C 265.546875 290.277344 262.414062 288.242188 261.101562 287.632812 C 259.792969 287.027344 256.957031 286.144531 254.808594 285.675781 C 252.65625 285.203125 249.140625 284.683594 246.988281 284.523438 C 244.839844 284.367188 240.542969 284.464844 237.4375 284.738281 C 234.332031 285.015625 229.835938 285.613281 227.449219 286.070312 C 225.058594 286.527344 220.761719 287.472656 217.894531 288.175781 C 215.027344 288.878906 210.730469 289.988281 208.339844 290.632812 C 205.953125 291.28125 198.917969 293.265625 192.707031 295.039062 C 186.496094 296.8125 177.40625 299.324219 172.515625 300.621094 C 167.617188 301.917969 160.191406 303.695312 156.011719 304.574219 C 149 306.050781 147.707031 306.191406 139.292969 306.371094 C 133.234375 306.507812 129.300781 306.398438 127.566406 306.058594 C 126.132812 305.773438 123.695312 305.042969 122.140625 304.433594 C 120.585938 303.824219 118.308594 302.621094 117.074219 301.757812 C 115.847656 300.894531 114.210938 299.40625 113.4375 298.453125 C 112.667969 297.496094 111.578125 295.738281 111.015625 294.542969 C 110.230469 292.886719 109.988281 291.621094 109.984375 289.222656 C 109.980469 287.492188 110.1875 285.535156 110.441406 284.878906 C 110.695312 284.226562 111.429688 283.128906 112.070312 282.449219 C 112.710938 281.765625 113.675781 281.03125 114.214844 280.820312 C 114.894531 280.546875 116.742188 280.773438 120.292969 281.5625 C 124.363281 282.464844 126.585938 282.695312 131.257812 282.714844 C 134.59375 282.722656 139.367188 282.410156 142.332031 281.988281 C 145.199219 281.574219 150.183594 280.664062 153.40625 279.960938 C 156.628906 279.257812 162.589844 277.785156 166.652344 276.695312 C 170.710938 275.605469 181.164062 272.660156 189.882812 270.160156 C 198.605469 267.65625 209.644531 264.640625 214.421875 263.457031 C 219.195312 262.273438 225.160156 260.917969 227.664062 260.445312 C 230.171875 259.972656 234.277344 259.300781 236.785156 258.960938 C 240.15625 258.5 245.082031 258.363281 255.675781 258.445312 Z M 237.4375 289.601562 C 238.871094 289.582031 242.972656 289.753906 246.554688 289.972656 C 251.199219 290.265625 253.816406 290.644531 255.675781 291.289062 C 257.109375 291.789062 259.035156 292.628906 259.957031 293.152344 C 260.878906 293.679688 261.902344 294.648438 262.238281 295.304688 C 262.566406 295.957031 262.839844 296.789062 262.839844 297.148438 C 262.839844 297.507812 262.449219 298.191406 261.972656 298.667969 C 261.320312 299.320312 260.535156 299.53125 258.824219 299.523438 C 257.109375 299.515625 255.601562 299.085938 252.742188 297.785156 C 250.65625 296.839844 247.527344 295.675781 245.796875 295.203125 C 244.0625 294.734375 240.792969 294.128906 238.523438 293.867188 C 236.25 293.601562 230.777344 293.453125 226.363281 293.53125 C 221.265625 293.621094 218.277344 293.515625 218.183594 293.238281 C 218.105469 293 219.378906 292.460938 221.007812 292.042969 C 222.640625 291.621094 226.414062 290.902344 229.402344 290.453125 C 232.386719 289.996094 236.003906 289.613281 237.4375 289.601562 Z M 237.4375 289.601562 " fill-opacity="1" fill-rule="evenodd"/></svg>