<svg version="1.2" xmlns="http://www.w3.org/2000/svg" viewBox="0 0 929 908" width="929" height="908">
	<style>
		.s0 { opacity: 1;fill: #000000 } 
	</style>
	<path id="Path 0" fill-rule="evenodd" class="s0" d="m366.5 120.5c1.65 0.27 4.24 1.85 5.75 3.5 1.84 2.01 2.96 4.57 3.37 7.75 0.35 2.61 0.13 8.57-0.49 13.25-0.61 4.68-1.68 10.47-2.37 12.89-0.69 2.41-2.05 4.88-3.01 5.5-1.27 0.81-2.23 0.81-3.5 0.01-0.96-0.6-2.75-2.85-3.98-5-1.22-2.14-3.14-6.6-4.26-9.9q-2.03-6-2.02-13.75c0.01-4.26 0.46-8.65 1.01-9.75 0.55-1.1 2.24-2.68 3.75-3.5 1.56-0.85 4.05-1.28 5.75-1zm51.47 23.73c2.59 0.2 3.86 0.97 5 3.01 1.11 2 1.25 3.22 0.5 4.5-0.56 0.97-5.74 4.1-11.5 6.96-5.76 2.86-12.05 5.49-13.97 5.84-1.92 0.35-3.85 0.26-4.27-0.2-0.43-0.46 0.74-2.86 2.6-5.34 1.85-2.48 5.35-6.14 7.77-8.15 2.42-2.01 5.75-4.38 7.4-5.27 1.65-0.89 4.56-1.5 6.47-1.35zm-96.47 7.77c0.55 0.01 3.25 1.07 6 2.35 2.75 1.28 7.59 4.65 10.75 7.49 3.16 2.84 5.75 5.84 5.75 6.66 0 0.82-0.34 1.7-0.75 1.94-0.41 0.25-4.8-0.8-9.75-2.33-4.95-1.53-10.91-3.76-13.25-4.95-3.47-1.76-4.27-2.7-4.38-5.1-0.1-2.09 0.55-3.4 2.25-4.51 1.31-0.86 2.83-1.56 3.38-1.55zm73 26.41c32.25 0.26 33.24 0.32 43.5 2.98 5.77 1.5 13.31 4.05 16.75 5.67 3.83 1.8 7.4 4.39 9.21 6.69 1.63 2.06 3.2 4.99 3.5 6.5 0.33 1.7-0.22 4.28-1.46 6.75-1.1 2.2-3.91 5.52-6.25 7.38-2.34 1.87-7.4 4.96-11.25 6.89-3.85 1.92-10.15 4.47-14 5.65-3.85 1.19-9.7 2.78-13 3.54-3.3 0.76-11.63 2.43-18.5 3.71-11.63 2.17-15.02 2.33-48.5 2.32-34.02-0.01-36.49-0.13-45-2.26-4.95-1.25-11.7-3.56-15-5.15-3.3-1.59-7.46-4.5-9.25-6.48-2.84-3.14-3.25-4.3-3.25-9.1 0-5.1 0.32-5.85 4.36-10.25 2.86-3.11 7.09-6.09 12.25-8.64 4.34-2.13 12.39-5.34 17.89-7.12 5.5-1.79 15.4-4.21 22-5.4 6.6-1.18 14.48-2.55 17.5-3.05 3.02-0.49 20.35-0.77 38.5-0.63zm-52 17.6c-6.05 1.19-14.6 3.31-19 4.7-4.4 1.39-10.02 3.56-12.5 4.82-2.48 1.27-5.06 3.24-5.75 4.38-0.69 1.15-1.05 2.88-0.8 3.84 0.24 0.96 2.6 2.71 5.25 3.88 2.64 1.17 7.95 2.74 11.8 3.49 4.77 0.92 14.66 1.34 31 1.31 13.2-0.03 28.5-0.61 34-1.3 5.5-0.68 13.83-1.92 18.5-2.76 4.67-0.83 11.2-2.18 14.5-2.99 3.3-0.82 8.92-2.57 12.5-3.89 3.58-1.32 7.74-3.32 9.25-4.45 1.72-1.28 2.75-2.97 2.75-4.54 0-1.78-0.87-2.93-3-4-1.65-0.82-6.71-2.41-11.25-3.52-6.83-1.67-12.56-2.09-33.25-2.43-13.75-0.23-29.05-0.03-34 0.44-4.95 0.47-13.95 1.83-20 3.02zm-137.5-16.31c5.77 0.27 13.31 1.12 16.75 1.9 3.44 0.77 10.19 3.26 15 5.54 7.14 3.37 10.24 5.63 16.85 12.25 6.43 6.44 8.57 9.35 10.36 14.11 1.61 4.26 2.29 8.32 2.36 14 0.08 6.06-0.39 9.09-1.93 12.5-1.12 2.48-3.58 6.23-5.46 8.34-1.89 2.11-5.68 4.92-8.43 6.23-2.93 1.4-7.9 2.67-12 3.05-6.35 0.6-7.59 0.4-13.4-2.23-3.52-1.59-7.6-4.24-9.07-5.89-1.47-1.65-2.98-4.46-3.35-6.25-0.55-2.64-0.18-3.86 1.98-6.5 1.46-1.79 3.7-5.5 4.99-8.25 1.65-3.55 2.33-6.81 2.34-11.25 0.01-3.57-0.63-7.53-1.49-9.25-0.82-1.65-2.74-3.61-4.25-4.36-1.51-0.75-3.88-1.64-5.25-1.99-1.38-0.34-4.86 0.04-7.75 0.86-2.89 0.82-6.71 2.78-8.5 4.36-1.79 1.58-4.6 5.29-6.25 8.25-2.8 5.02-3 6.08-3 15.88 0 9.21 0.31 11.11 2.5 15.46 1.37 2.73 5.2 7.71 8.5 11.08 3.3 3.36 9.37 8.59 13.5 11.62 4.12 3.03 11.77 8.67 17 12.54 5.23 3.88 12.46 10.14 16.08 13.92 3.62 3.78 8.18 9.8 10.13 13.38 1.96 3.58 4.38 8.98 5.38 12 1.38 4.19 1.81 8.6 1.79 18.5-0.01 10.29-0.47 14.61-2.2 20.75-1.2 4.26-3.36 10.11-4.8 13-1.44 2.89-4.52 7.95-6.85 11.25-2.33 3.3-7.34 8.85-11.13 12.33-3.8 3.48-9.38 7.96-12.4 9.95-3.02 1.99-9.1 5.3-13.5 7.35-4.4 2.05-11.38 4.72-15.5 5.92-5.89 1.72-11.05 2.3-24 2.69-14.54 0.44-17.51 0.25-25-1.62-4.68-1.17-11.43-3.54-15-5.28-4.47-2.18-9.04-5.68-14.66-11.25-5.92-5.87-9.01-9.88-11.23-14.59-1.68-3.58-3.6-9.88-4.25-14-0.9-5.69-0.91-9.19-0.05-14.5 0.63-3.87 2.6-9.91 4.39-13.5 1.78-3.58 5.5-8.76 8.27-11.53 2.81-2.81 8.11-6.57 12-8.5 6.16-3.06 8.04-3.5 16-3.77 7.7-0.25 9.51 0.01 12.28 1.75 2.4 1.51 3.24 2.77 3.22 4.8-0.01 1.51-0.8 3.59-1.75 4.61-1.08 1.18-1.85 3.96-2.07 7.5-0.2 3.1 0.2 7.66 0.88 10.14 0.85 3.1 2.69 5.9 5.9 9 2.56 2.48 6.44 5.06 8.61 5.73 2.18 0.68 5.98 1.25 8.46 1.27 2.48 0.02 6.07-0.5 8-1.15 1.93-0.66 5.23-2.35 7.34-3.77 2.11-1.42 4.55-3.71 5.42-5.08 0.88-1.39 1.8-5.62 2.07-9.5 0.41-5.95 0.13-7.75-1.91-12-1.31-2.75-4.67-7.25-7.46-10-2.79-2.75-12.47-9.94-21.51-15.98-9.05-6.04-19.75-14.14-23.79-18-4.04-3.86-8.82-9.27-10.61-12.02-1.8-2.75-4.19-7.48-5.32-10.5-1.13-3.02-2.61-9.55-3.29-14.5-0.96-6.95-0.98-10.76-0.09-16.75 0.63-4.26 2.5-11.24 4.15-15.5 1.69-4.37 5.28-10.78 8.25-14.7 2.89-3.82 8.18-9.35 11.75-12.27 3.57-2.93 9.43-6.85 13-8.71 3.57-1.86 9.88-4.4 14-5.64 4.13-1.25 9.98-2.59 13-2.99 3.02-0.4 10.23-0.51 16-0.24zm394.25 5.39c2.06-0.05 4.99 0.39 6.5 0.98 1.51 0.58 3.77 2.05 5.03 3.25 1.79 1.71 2.26 3.25 2.23 7.18-0.03 2.75-0.7 9.27-1.51 14.5-0.81 5.23-1.47 10.29-1.48 11.25-0.02 1.47 0.91 1.75 5.73 1.75 3.16 0 10.63-0.57 16.59-1.25 10.43-1.2 10.89-1.18 12.33 0.75 1.08 1.43 1.39 3.7 1.1 8-0.29 4.28-1.29 7.58-3.47 11.5-1.68 3.02-4.12 6.31-5.43 7.31-1.3 0.99-4.39 2.21-6.87 2.7-2.48 0.5-8.66 0.92-23 0.99l-0.67 4.75c-0.37 2.61-0.71 18.25-0.75 34.75-0.08 29.4-0.03 30.1 2.25 35 1.28 2.75 3.19 6.24 4.25 7.75 1.37 1.96 3.68 3.25 8.05 4.5 4.52 1.29 6.37 2.34 7 4 0.48 1.24 0.58 3.71 0.23 5.5-0.36 1.79-1.48 4.94-2.5 7-1.02 2.06-3.77 5.58-6.11 7.82-2.34 2.24-6.5 5.17-9.25 6.51-4.38 2.14-6.36 2.44-16 2.44-9.5-0.01-11.57-0.32-15.18-2.27-2.29-1.24-5.56-3.49-7.25-5-1.69-1.51-4.2-4.55-5.57-6.75-1.38-2.2-3.63-7.38-5-11.5-2.4-7.2-2.5-8.48-2.47-32.25 0.01-13.61 0.46-29.02 0.99-34.25 0.53-5.23 1.31-13.74 2.48-28.33l-8.5 0.73c-6.51 0.56-8.78 0.43-9.7-0.58-0.66-0.73-1.5-2.67-1.86-4.32-0.38-1.72 0-5.34 0.89-8.5 0.96-3.41 2.82-6.83 4.89-9 2.08-2.17 5.8-4.4 9.81-5.88 4.14-1.52 7.73-3.7 9.97-6.05 1.92-2.01 6.19-8.59 9.48-14.62 3.28-6.02 7.36-12.64 9.05-14.7 1.84-2.24 4.46-4.12 6.52-4.66 1.9-0.5 5.14-0.95 7.2-1zm107.75 41.99c6.5-0.06 12.79 0.5 16.5 1.45 3.3 0.85 8.7 2.81 12 4.36 3.3 1.55 8.48 4.68 11.5 6.94 3.02 2.27 7.87 6.95 10.77 10.4 2.9 3.45 6.8 9.2 8.68 12.77 1.87 3.57 4.65 10.55 6.16 15.5 2.57 8.36 2.76 10.24 2.76 26.5 0 16.26-0.19 18.14-2.76 26.5-1.51 4.95-4.63 12.6-6.93 17-2.3 4.4-6.2 10.52-8.68 13.6-2.47 3.09-6.82 7.59-9.66 10-2.84 2.42-7.57 5.86-10.5 7.65-2.94 1.8-9.39 4.66-14.34 6.37-8.92 3.08-9.15 3.11-25.5 2.71-16.5-0.4-16.5-0.4-24-3.97-4.13-1.96-10.31-5.66-13.75-8.21-3.44-2.56-8.32-7.46-10.86-10.9-2.53-3.44-5.86-8.73-7.38-11.75-1.53-3.02-3.74-8.65-4.92-12.5-1.18-3.85-2.61-10.83-3.19-15.5-0.74-6.01-0.72-11.87 0.06-20 0.61-6.33 2.02-14.88 3.15-19 1.12-4.13 3.61-10.88 5.53-15 1.92-4.13 5.44-10.2 7.81-13.5 2.37-3.3 6.96-8.52 10.18-11.59 3.23-3.08 8.57-7.32 11.87-9.43 3.3-2.11 8.02-4.74 10.5-5.84 2.48-1.1 6.75-2.56 9.5-3.23 2.75-0.68 9.73-1.28 15.5-1.33zm-9.86 32.65c-1.08 1.52-3.57 6.14-5.52 10.27-1.96 4.12-4.27 10.2-5.14 13.5-0.87 3.3-1.84 11.85-2.15 19-0.45 10.44-0.22 14.28 1.15 19.5 0.95 3.58 2.52 8.08 3.49 10 0.98 1.92 3.41 4.96 5.4 6.75 2 1.79 5.09 3.52 6.88 3.84 1.98 0.36 4.71-0.03 7-1 2.06-0.87 5.69-3.5 8.06-5.84 2.37-2.34 5.72-7.17 7.44-10.75 1.72-3.58 3.78-8.98 4.57-12 0.79-3.02 1.75-10.45 2.14-16.5 0.41-6.51 0.26-14.37-0.38-19.25-0.59-4.54-2.03-10.16-3.19-12.5-1.16-2.34-3.08-5.31-4.25-6.6-1.18-1.28-3.38-2.97-4.89-3.75-1.51-0.77-4.66-1.38-7-1.36-2.34 0.03-5.91 0.92-7.94 1.99-2.04 1.06-4.58 3.18-5.67 4.7zm-192.14-20.38c5.67 0.18 8.84 0.87 13 2.85 3.13 1.49 7.44 4.73 10 7.53 2.57 2.82 5.68 7.79 10 18.27v81l3.92 8.25c2.16 4.54 4.19 9.26 4.5 10.5 0.44 1.69-0.35 3.21-3.17 6.13-2.78 2.87-5.56 4.44-10.75 6.06-3.85 1.2-10.83 2.45-15.5 2.77-4.96 0.34-11.21 0.09-15-0.61-3.58-0.65-7.96-2.06-9.75-3.14-2.33-1.41-3.58-3.16-4.43-6.21-1.02-3.71-0.77-6.27 1.99-20.25 1.75-8.8 3.68-20.27 4.3-25.5 0.69-5.72 0.89-15.18 0.51-23.75-0.36-8.24-1.19-15.62-1.97-17.5-0.74-1.79-2.54-4.71-4-6.5-1.82-2.23-3.83-3.44-6.4-3.86-2.06-0.34-5.21-0.34-7 0-1.79 0.33-5.06 2.3-7.27 4.36-2.96 2.76-4.34 5.06-5.22 8.75-0.76 3.18-1.21 14.29-1.23 30.5-0.02 17.55 0.39 27.68 1.33 32.5 0.75 3.85 2.89 10.94 4.75 15.75 3.37 8.7 3.38 8.77 1.6 12-1.04 1.88-3.89 4.39-6.75 5.96-2.73 1.5-8 3.41-11.71 4.25-3.71 0.85-10.24 1.54-14.5 1.55-4.26 0.01-10.23-0.45-13.25-1.01-3.02-0.56-6.63-1.85-8-2.86-1.38-1.01-3.17-3-4-4.43-1.38-2.38-1.18-4.16 6.32-41.21l-0.09-27c-0.05-16.1-0.54-29.02-1.22-32-0.62-2.75-2.89-8.6-5.04-13-2.16-4.4-3.93-8.79-3.95-9.75-0.01-0.96 1.67-3.45 3.73-5.54 2.06-2.08 6.23-4.97 9.25-6.42 3.02-1.45 8.87-3.4 13-4.33 4.63-1.04 10.24-1.55 14.67-1.33 5.3 0.27 7.92 0.92 10 2.46 1.7 1.25 3.36 3.86 4.16 6.5 0.74 2.43 1.52 4.97 1.75 5.66 0.25 0.75 2.9-1.04 6.67-4.53 3.44-3.18 8.95-7.06 12.25-8.63 3.3-1.57 8.02-3.22 10.5-3.66 2.48-0.45 7.87-0.7 12-0.58zm-170.5 13.81c4.4-0.06 11.37 0.35 15.5 0.89 4.12 0.55 9.98 2.14 13 3.53 3.02 1.4 7.75 4.24 10.5 6.3 2.75 2.07 6.48 5.98 8.29 8.69 1.81 2.71 4.19 7.86 5.27 11.43 1.79 5.88 1.98 9.41 1.95 37-0.03 24.33 0.27 31.41 1.45 35 0.81 2.48 2.28 5.23 3.26 6.12 0.98 0.89 3.13 2.05 4.78 2.58 2.57 0.82 3.04 1.51 3.31 4.88 0.17 2.15-0.47 5.94-1.43 8.42-0.96 2.48-3.85 6.75-6.43 9.5-3.02 3.22-6.96 6.03-11.07 7.89-5.07 2.29-7.82 2.89-13.38 2.91-5.07 0.01-8.1-0.55-11-2.02-2.2-1.11-5.35-3.62-7-5.58-1.65-1.96-3.71-4.6-6.18-8.2l-9.91 8.76c-5.57 4.92-12.54 10.03-15.91 11.65-3.3 1.6-8.7 3.44-12 4.11-3.51 0.7-8.49 0.93-12 0.55-3.3-0.36-8.25-1.73-11-3.03-2.75-1.3-6.77-4.32-8.94-6.71-2.17-2.38-4.72-6.13-5.67-8.33-0.96-2.2-2.04-7.15-2.42-11-0.39-4.08-0.2-9.51 0.45-13 0.62-3.3 2.18-8.25 3.45-11 1.28-2.75 4.33-7.48 6.79-10.5 2.46-3.02 7.59-7.61 11.4-10.18 3.82-2.58 10.31-6.08 14.44-7.79 4.12-1.7 10.87-4.06 15-5.25 4.12-1.19 11.77-2.88 26.5-5.36l-0.13-15.46c-0.1-12.04-0.49-16.18-1.75-18.71-0.89-1.79-2.63-3.93-3.87-4.76-1.25-0.83-4.48-1.51-7.25-1.52-4.29-0.01-5.43 0.43-8 3.08-2.92 3.02-3 3.35-3 22.95l-4 4.15c-2.2 2.29-6.25 5.17-9 6.41-2.75 1.25-7.25 2.56-10 2.93-2.77 0.37-6.9 0.19-9.25-0.41-2.45-0.62-5.97-2.67-8.3-4.83-2.23-2.06-4.54-5.33-5.14-7.25-0.64-2.06-0.82-6.18-0.44-10 0.35-3.57 1.65-8.51 2.89-10.97 1.23-2.46 4.61-6.73 7.5-9.5 2.9-2.77 7.85-6.73 11-8.8 3.16-2.08 8.89-4.73 12.74-5.88 3.85-1.16 9.25-2.44 12-2.85 2.75-0.41 8.6-0.79 13-0.84zm-9.83 88.92c-2.11 1.88-4.93 5.67-6.26 8.42-1.42 2.92-2.43 6.77-2.42 9.25 0.01 3.52 0.63 4.9 3.63 8 3.46 3.58 3.83 3.72 8.25 3.05 2.82-0.43 5.95-1.8 8.01-3.5 1.86-1.54 4.25-3.93 5.31-5.3 1.53-1.98 2.09-5.01 2.72-14.5 0.43-6.6 0.63-12.56 0.44-13.25-0.19-0.69-1.14-1.25-2.1-1.25-0.96 0-4.45 1.27-7.75 2.83-3.3 1.55-7.72 4.37-9.83 6.25zm488.33 12.3c10.25 0.26 17.7 0.98 22 2.11 3.58 0.94 10.1 3.43 14.5 5.53 4.65 2.23 9.67 5.55 12 7.95 3.49 3.6 3.98 4.66 3.81 8.33-0.1 2.31-8.35 36.82-18.32 76.7-9.97 39.87-19.23 77.9-20.57 84.5-1.35 6.6-2.44 13.01-2.43 14.25 0 1.24-0.78 3.89-1.74 5.88-0.96 2-2.65 4.1-3.75 4.67-1.1 0.57-3.35 1.33-5 1.71-1.65 0.37-5.7 0.34-9-0.07-3.3-0.41-11.74-1.46-18.75-2.34-7.01-0.88-14.1-2.27-15.75-3.1-1.74-0.87-3.69-3.07-4.65-5.25-1.57-3.55-1.54-4.31 0.51-14.25 1.4-6.74 3.24-24.29 5.15-49 1.64-21.17 3.86-49.3 4.94-62.5 1.08-13.2 2.46-31.65 3.06-41 0.6-9.35 1.29-18.46 1.54-20.25 0.25-1.79 1.91-4.86 3.7-6.82 1.79-1.96 5.5-4.44 8.25-5.51 4.37-1.69 6.95-1.89 20.5-1.54zm-250.5 38.91c12.72 0.19 14.45 0.44 18.94 2.71 3.64 1.85 5.3 3.42 6.32 6 1.26 3.17 1.01 5.93-2.64 29.5-2.21 14.3-4.79 32.98-5.73 41.5-1.1 9.99-1.74 24.2-1.8 40-0.05 14.78 0.43 28.67 1.22 35 0.72 5.77 1.96 13.31 2.75 16.75 0.79 3.44 3.24 10.52 5.44 15.75 3.02 7.17 3.82 10.15 3.25 12.16-0.41 1.46-2.33 4.01-4.25 5.67-1.92 1.66-5.98 4.11-9 5.45-3.02 1.33-8.65 3.1-12.5 3.93-3.85 0.83-12.17 1.56-18.5 1.62-8.11 0.08-13.12-0.38-17-1.55-3.02-0.91-6.74-2.58-8.25-3.72-1.51-1.13-3.25-3.75-3.87-5.81-0.94-3.18-0.65-5.87 1.95-17.75 1.68-7.7 3.74-18.05 4.57-23 0.83-4.95 2.21-15.08 3.07-22.5 0.85-7.42 1.82-21.6 2.16-31.5 0.34-9.97 0.11-25.36-0.5-34.5-0.61-9.08-1.79-20.55-2.63-25.5-0.85-4.95-2.91-13.5-4.59-19-1.97-6.43-2.86-11.07-2.49-13 0.32-1.65 2.27-4.64 4.33-6.64 2.06-2.01 5.77-4.67 8.25-5.92 2.48-1.24 7.42-3.07 11-4.06 5.05-1.39 9.63-1.74 20.5-1.59zm-216.75 22.26c3.44 0.25 8.57 1.46 11.4 2.7 2.83 1.24 6.74 4.05 8.68 6.25 1.94 2.2 4.13 5.46 4.85 7.25 0.73 1.79 1.31 6.95 1.31 11.5-0.01 6.07-0.53 9.31-1.95 12.25-1.06 2.2-3.68 6.02-5.84 8.5-2.15 2.48-6.34 5.83-9.31 7.46-4.65 2.56-6.7 3.02-14.89 3.39-7.03 0.31-10.8-0.01-14.5-1.22-2.75-0.9-6.69-3.21-8.75-5.13-2.06-1.93-4.74-5.64-5.94-8.25-1.59-3.44-2.2-6.68-2.21-11.75-0.01-5.55 0.56-8.25 2.75-13 1.51-3.3 4.42-7.73 6.45-9.84 2.04-2.11 5.95-4.97 8.7-6.36 2.75-1.39 6.8-2.91 9-3.37 2.2-0.46 6.81-0.63 10.25-0.38zm332.75 7.92c7.36 0.26 12.04 1.04 17.75 2.94 4.26 1.43 9.89 3.67 12.5 4.98 2.61 1.32 7.26 4.36 10.33 6.75 3.07 2.4 8.39 7.51 11.82 11.36 4.07 4.58 7.94 10.46 11.18 17 2.72 5.5 5.86 13.6 6.98 18 1.11 4.4 2.3 13.17 2.64 19.5 0.39 7.22 0.14 15.03-0.66 21-0.7 5.23-2.34 13.21-3.65 17.75-1.32 4.54-3.79 11.06-5.51 14.5-1.71 3.44-5.04 9.17-7.4 12.75-2.36 3.58-7.15 9.31-10.64 12.74-3.49 3.43-8.82 7.9-11.84 9.93-3.02 2.03-8.2 4.95-11.5 6.49-3.3 1.54-9.6 3.73-14 4.88-5.42 1.42-11.38 2.12-18.5 2.2-7.94 0.08-12.69-0.45-19.5-2.19-4.95-1.26-11.02-3.22-13.5-4.35-2.48-1.14-7.09-3.79-10.25-5.88-3.16-2.1-8.12-6.18-11.01-9.07-2.89-2.89-6.65-7.27-8.36-9.75-1.71-2.48-4.24-6.75-5.63-9.5-1.38-2.75-3.69-8.71-5.13-13.25-1.59-5.01-3.05-12.86-3.71-20-0.6-6.46-0.79-15.58-0.43-20.25 0.36-4.67 1.8-13 3.2-18.5 1.4-5.5 4.55-14.27 7-19.5 2.45-5.23 6.39-12.2 8.75-15.5 2.35-3.3 8.1-9.6 12.77-14 5.04-4.76 11.28-9.47 15.39-11.64 3.8-2 9.61-4.6 12.91-5.77 3.3-1.17 8.7-2.55 12-3.06 3.3-0.51 10.5-0.76 16-0.56zm-14.73 36.53c-1.59 1.92-4.62 7.1-6.73 11.5-2.11 4.4-4.6 10.92-5.52 14.5-0.98 3.78-1.93 12.58-2.26 21-0.48 11.9-0.26 15.85 1.2 22 0.98 4.12 2.81 9.52 4.07 12 1.25 2.48 3.56 5.71 5.13 7.19 1.56 1.47 4.08 3.16 5.59 3.75 1.51 0.58 4.21 1.05 6 1.05 1.79-0.01 5.05-0.88 7.25-1.93 2.2-1.05 5.77-3.86 7.94-6.24 2.17-2.37 5.2-7.02 6.73-10.32 1.53-3.3 3.72-9.6 4.87-14 1.45-5.57 2.25-12.56 2.63-23 0.44-11.82 0.21-16.43-1.06-21.75-0.88-3.71-2.56-8.66-3.72-11-1.16-2.34-3.3-5.53-4.75-7.09-1.45-1.56-3.88-3.47-5.39-4.25-1.51-0.78-4.44-1.41-6.5-1.41-2.06 0-5.74 1.01-8.17 2.25-2.44 1.24-5.73 3.83-7.31 5.75zm-430.27-34.65c17.28 0.28 19.59 0.53 25.5 2.75 3.57 1.35 8.75 3.75 11.5 5.35 2.75 1.6 7.85 5.63 11.32 8.98 3.95 3.79 7.43 8.32 9.27 12.07 2.07 4.23 3.25 8.66 4 15 0.58 4.95 0.75 12.15 0.39 16-0.37 3.85-1.98 10.6-3.58 15-1.61 4.4-4.9 10.92-7.31 14.5-2.42 3.58-7.03 8.7-10.24 11.39-3.22 2.7-8.55 6.18-11.85 7.75-3.36 1.59-9.52 3.37-14 4.04-6.5 0.98-9.12 0.95-14-0.17-3.57-0.81-7.62-2.61-10-4.45-2.2-1.7-5.04-5.11-6.32-7.57-1.93-3.73-2.21-5.42-1.7-9.99 0.34-3.02 1.41-7.3 2.38-9.5 0.97-2.2 5.52-8.95 10.12-15 4.6-6.05 9.26-13.02 10.37-15.5 1.32-2.97 2.03-6.78 2.08-11.18 0.06-6.12-0.18-6.95-2.93-9.8-1.65-1.7-4.8-3.57-7-4.14-2.2-0.57-5.8-0.72-8-0.34-2.2 0.39-6.25 1.53-9 2.53-2.75 1.01-7.93 4.04-11.5 6.73-3.58 2.7-9.4 8-12.94 11.8-3.54 3.79-8.78 10.5-11.63 14.9-2.85 4.4-6.88 11.37-8.94 15.5-2.06 4.12-5.46 12.67-7.55 19-2.1 6.33-4.51 14.99-5.37 19.25-0.87 4.26-1.85 13.04-2.2 19.5-0.35 6.62-0.15 16.12 0.47 21.75 0.61 5.5 2.26 13.37 3.68 17.5 1.42 4.12 3.79 9.74 5.28 12.47 1.48 2.74 5.29 7.58 8.45 10.75 3.16 3.18 8.45 7.13 11.75 8.78 4.44 2.22 8.02 3.16 13.75 3.62 4.36 0.35 11.03 0.12 15.25-0.53 4.12-0.64 10.2-2.42 13.5-3.97 3.3-1.54 9.49-5.57 13.75-8.96 4.26-3.39 10.5-9.65 13.85-13.91 3.36-4.26 7.64-11.01 9.5-15 2.75-5.87 3.93-7.37 6.15-7.87 1.51-0.34 4.1-0.32 5.75 0.06 1.65 0.37 4.12 1.5 5.5 2.5 1.37 0.99 3.85 4.23 5.5 7.19 2.94 5.26 3.01 5.7 3.35 21.87 0.28 12.98 0 17.89-1.31 23-0.91 3.58-2.97 9.65-4.58 13.5-1.61 3.85-5.26 10.83-8.11 15.5-3.59 5.89-8.6 11.88-16.27 19.5-8.76 8.69-13.3 12.29-21.59 17.13-5.77 3.37-13.42 7.28-16.99 8.68-3.58 1.41-11 3.78-16.5 5.27-8.94 2.42-11.8 2.72-27 2.79-10.81 0.06-19.18-0.4-23-1.24-3.3-0.74-10.28-2.69-15.5-4.35-5.23-1.66-11.75-4.15-14.5-5.54-2.75-1.38-7.7-4.35-11-6.59-3.3-2.25-9.38-7.3-13.5-11.23-4.13-3.93-9.82-10.47-12.66-14.54-2.84-4.06-6.96-10.98-9.15-15.38-2.2-4.4-5.39-12.39-7.09-17.75-1.71-5.36-3.74-13.46-4.52-18-0.79-4.54-1.73-12.98-2.1-18.75-0.4-6.17-0.2-14.83 0.48-21 0.63-5.77 2.05-15 3.15-20.5 1.1-5.5 3.59-14.73 5.52-20.5 1.93-5.77 6.45-16.35 10.04-23.5 3.59-7.15 9.16-16.83 12.38-21.5 3.22-4.67 9.47-12.66 13.9-17.75 4.43-5.09 12.21-12.71 17.3-16.93 5.09-4.22 13.97-10.81 19.75-14.64 5.77-3.83 15-9.13 20.5-11.77 5.5-2.64 14.05-6.15 19-7.8 4.95-1.65 13.27-3.91 18.5-5.03 8.07-1.73 12.36-2 28.5-1.73zm233 25.8c2.2-0.06 6.7 0.27 10 0.72 3.3 0.46 8.47 1.96 11.5 3.33 3.02 1.37 7.9 4.7 10.84 7.4 2.94 2.69 6.44 7.15 7.78 9.9 1.33 2.75 2.9 8.37 3.47 12.5 0.85 6.12 0.73 8.97-0.62 15.5-0.91 4.4-3.19 11.04-5.07 14.75-2.07 4.12-6.23 9.72-10.65 14.36-3.99 4.18-10.17 9.55-13.75 11.93-3.58 2.38-9.88 5.9-14 7.83-4.13 1.92-13.13 5.13-20 7.12-6.88 2-12.73 3.83-13 4.07-0.27 0.23 0.17 1.89 1 3.68 0.82 1.79 2.62 4.56 4 6.15 1.37 1.58 4.19 3.72 6.25 4.75 2.73 1.35 6 1.87 12 1.88 7.37 0.03 8.94-0.32 14.69-3.25 3.6-1.82 9.13-5.92 12.53-9.27 3.34-3.3 7.87-8.12 10.05-10.71 2.93-3.47 4.71-4.72 6.73-4.75 1.53-0.02 3.97 1.03 5.5 2.38 2.44 2.14 2.79 3.23 3.12 9.75 0.25 4.91-0.2 9.31-1.34 13.33-0.94 3.3-3.58 9.56-5.87 13.91-3.27 6.23-6.19 9.85-13.67 17-7 6.69-11.49 10.06-17 12.76-4.12 2.02-10.87 4.6-14.99 5.75-5.73 1.59-10.39 2.08-19.75 2.08-10.48 0-13.22-0.35-19-2.44-3.71-1.35-9-3.68-11.75-5.19-2.75-1.51-7.71-5.48-11.01-8.81-4.11-4.14-7.35-8.75-10.24-14.56-2.33-4.67-4.98-11.88-5.89-16-1.13-5.09-1.68-12.33-1.7-22.5-0.03-13.04 0.31-16.37 2.63-25.5 1.47-5.77 4.17-14.33 6-19 1.83-4.67 5.17-11.65 7.42-15.5 2.25-3.85 6.73-9.97 9.94-13.61 3.22-3.63 8.77-9.09 12.35-12.11 3.58-3.03 8.41-6.69 10.75-8.14 2.34-1.45 8.19-4.24 13-6.2 5.55-2.26 11.5-3.86 16.25-4.37 4.12-0.44 9.3-0.85 11.5-0.92zm-19.75 34.69c-2.06 2.29-5.1 6.86-6.75 10.16-1.65 3.3-4.14 9.94-5.52 14.75-1.39 4.81-2.86 12.35-3.27 16.75-0.41 4.4-0.63 8.79-0.48 9.75 0.15 0.96 1.06 1.76 2.02 1.77 0.96 0.01 4.45-1.32 7.75-2.97 3.3-1.64 7.76-4.46 9.91-6.27 2.15-1.8 5.84-5.98 8.19-9.28 2.36-3.3 5.51-8.92 7.02-12.5 2.24-5.34 2.74-8.07 2.8-15.33 0.08-8.73 0.04-8.86-3.17-11.75-1.93-1.74-4.36-2.92-6-2.92-1.51 0.01-4.1 0.83-5.75 1.84-1.65 1.01-4.69 3.71-6.75 6zm-99.75 1.64c6.14 0.24 11.06 1.02 13.92 2.2 2.42 1 5.25 2.94 6.28 4.32 1.07 1.43 1.85 4.1 1.83 6.25-0.01 2.06-1.13 10.16-2.48 18-1.35 7.84-3.15 20.89-4 29-0.85 8.11-1.55 20.26-1.54 27 0 6.74 0.7 16.98 1.54 22.75 0.84 5.77 2.24 12.98 3.11 16 0.86 3.02 3.14 9.1 5.05 13.5 1.96 4.51 3.25 8.87 2.95 10-0.3 1.1-1.58 3.3-2.85 4.9-1.27 1.59-4.33 3.91-6.81 5.14-2.48 1.24-7.88 3.28-12 4.55-5.83 1.78-9.96 2.31-18.5 2.34-6.05 0.02-13.7-0.35-17-0.83-4.95-0.72-6.7-1.53-10-4.67-3.67-3.48-3.99-4.18-3.82-8.61 0.1-2.65 1.6-10.9 3.34-18.32 1.73-7.42 3.85-18.45 4.71-24.5 0.99-7.02 1.58-18.78 1.62-32.5 0.04-13.16-0.41-24.02-1.17-28-0.68-3.58-2.91-11.57-8.68-29.05l2-3.61c1.1-1.99 3.8-4.85 6-6.36 2.2-1.5 6.81-3.92 10.25-5.36 3.44-1.44 8.61-3.05 11.5-3.57 2.89-0.52 9.52-0.78 14.75-0.57zm437.5 91.95c5.94 0.22 10.87 1.04 14.5 2.4 3.03 1.13 8.2 4.02 11.5 6.41 3.35 2.44 7.4 6.55 9.17 9.31 1.74 2.72 3.94 7.65 4.88 10.95 1.17 4.12 1.57 8.2 1.26 13-0.31 4.74-1.32 8.86-3.13 12.75-1.48 3.16-4.65 7.89-7.06 10.5-2.41 2.61-6.8 6.07-9.75 7.68-2.95 1.6-7.62 3.51-10.37 4.23-2.75 0.73-8.15 1.32-12 1.33-3.85 0.01-9.7-0.67-13-1.51-3.5-0.9-8.71-3.36-12.5-5.93-3.58-2.41-7.92-6.34-9.66-8.72-1.74-2.38-4.1-6.35-5.23-8.83-1.67-3.63-2.07-6.53-2.08-15-0.01-9.13 0.31-11.18 2.48-15.75 1.37-2.89 4.85-7.76 7.74-10.82 3.17-3.36 7.43-6.58 10.75-8.12 3.02-1.4 7.3-2.92 9.5-3.38 2.2-0.46 8.05-0.68 13-0.5zm-163 37.95c32.1 0.25 33.26 0.32 42.5 2.87 5.22 1.43 13.33 4.23 18 6.2 4.67 1.98 11.54 5.39 15.25 7.57 3.71 2.19 9.18 6.34 12.15 9.23 3.45 3.36 6.6 7.77 8.75 12.25 2.89 6.03 3.4 8.24 3.68 16 0.27 7.17-0.07 10.12-1.7 14.5-1.11 3.02-3.96 7.7-6.33 10.4-2.36 2.69-6.55 6.17-9.3 7.73-2.75 1.56-8.38 3.57-12.5 4.46-6.13 1.33-8.64 1.42-13.75 0.52-3.44-0.61-8.84-2.27-12-3.68-3.16-1.41-10.48-6.1-16.25-10.43-5.77-4.32-12.98-9.01-16-10.41-3.02-1.4-9.55-3.43-14.5-4.51-4.95-1.09-13.05-2.28-18-2.65-4.95-0.36-14.85-0.14-22 0.49-7.15 0.64-17.5 2.02-23 3.07-5.5 1.05-15.4 3.23-22 4.85-6.6 1.62-16.5 4.17-22 5.66-5.5 1.49-21.7 6.06-36 10.14-14.3 4.09-35.23 9.87-46.5 12.86-11.28 2.98-28.38 7.08-38 9.1-16.15 3.4-19.12 3.72-38.5 4.14-13.95 0.31-23.01 0.06-27-0.72-3.3-0.66-8.92-2.34-12.5-3.74-3.58-1.41-8.82-4.18-11.66-6.17-2.83-1.98-6.6-5.41-8.38-7.61-1.77-2.2-4.28-6.25-5.58-9-1.8-3.81-2.36-6.73-2.37-12.25-0.01-3.99 0.47-8.49 1.05-10 0.59-1.51 2.28-4.03 3.75-5.6 1.48-1.57 3.7-3.26 4.94-3.75 1.57-0.63 5.82-0.11 14 1.71 9.37 2.08 14.49 2.61 25.25 2.65 7.68 0.02 18.67-0.7 25.5-1.67 6.6-0.95 18.08-3.05 25.5-4.67 7.42-1.62 21.15-5.01 30.5-7.52 9.35-2.51 33.42-9.29 53.5-15.05 20.08-5.76 45.5-12.71 56.5-15.43 11-2.73 24.73-5.85 30.5-6.94 5.77-1.09 15.23-2.63 21-3.42 7.76-1.06 19.11-1.37 43.5-1.18zm-42 71.74c3.3-0.04 12.75 0.35 21 0.86 10.69 0.67 16.72 1.54 21 3.03 3.3 1.15 7.74 3.08 9.86 4.29 2.12 1.21 4.48 3.44 5.25 4.95 0.76 1.51 1.39 3.42 1.39 4.25 0 0.83-0.9 2.4-2 3.5-1.5 1.5-3.31 1.99-7.25 1.97-3.95-0.02-7.42-1.01-14-4-4.81-2.18-12.01-4.86-16-5.95-3.99-1.08-11.52-2.47-16.75-3.08-5.23-0.61-17.83-0.95-28-0.77-11.74 0.21-18.62-0.04-18.83-0.67-0.18-0.55 2.75-1.79 6.5-2.76 3.76-0.97 12.45-2.62 19.33-3.66 6.87-1.05 15.2-1.93 18.5-1.96z"/>
</svg>